<?xml version="1.0" encoding="UTF-8"?>
<svg width="442px" height="75px" viewBox="0 0 442 75" xmlns="http://www.w3.org/2000/svg">
  <title>Incentro logo</title>
  <g fill="#FE5000">
    <path d="M15.5541317,59.4458683 L15.5541317,8.72561123 L0,8.72561123 L0,75 C8.59075172,75 15.5541317,68.0366201 15.5541317,59.4458683" />
    <path d="M81.1204074,41.7381109 C81.1204074,23.505911 66.3402083,8.72571187 48.1080084,8.72571187 L25.6659778,8.72571187 L25.6659778,75.0001006 L41.2201095,75.0001006 L41.2201095,24.9561539 L48.3515606,24.9561539 C57.8591557,24.9561539 65.5662757,32.6632739 65.5662757,42.170869 L65.5662757,75.0001006 L81.1204074,75.0001006 L81.1204074,41.7381109 Z" />
    <path d="M129.787982,59.4623735 L121.655149,59.4714313 C111.281031,59.4714313 103.045544,50.318094 104.583345,39.6470841 C105.810163,31.1358391 113.351225,24.9564558 121.950028,24.9564558 L129.111672,24.9564558 C138.075803,24.9564558 145.342114,17.6891388 145.342114,8.72601379 L145.342114,8.72500738 L121.993304,8.72500738 C105.510252,8.72500738 91.1758944,20.6459837 88.8379941,36.9629774 C85.9053031,57.4404874 101.714058,75.0004026 121.62395,75.0004026 L145.342114,75.0004026 L145.342114,75.0004026 C145.342114,66.4126701 138.375715,59.4533158 129.787982,59.4623735" />
    <path d="M163.805588,39.3747484 C165.142106,31.1976329 172.235313,24.955852 180.79084,24.955852 L188.505005,24.955852 C187.844798,33.9179705 180.371166,41.0524409 171.240976,41.0524409 C168.57901,41.0524409 166.058949,40.4485924 163.805588,39.3747484 M188.945815,59.4627761 L180.811975,59.4708274 C177.558238,59.4708274 174.514841,58.5690803 171.917286,57.0030998 C189.557715,56.648842 203.824642,42.5167736 204.495921,24.955852 L204.499946,24.955852 L204.499946,8.72540995 L181.151137,8.72540995 C164.420507,8.72540995 149.973431,21.0097018 147.909275,37.6125171 C145.398272,57.810244 161.082231,74.9997987 180.781783,74.9997987 L204.499946,74.9997987 L204.499946,74.9997987 C204.499946,66.4120662 197.533547,59.4537184 188.945815,59.4627761" />
    <path d="M271.87817,41.7381109 C271.87817,23.505911 257.097971,8.72571187 238.865771,8.72571187 L230.646386,8.72571187 L229.922774,8.72571187 L215.07112,8.72571187 L215.07112,75.0001006 L230.625252,75.0001006 L230.625252,24.9561539 L239.108317,24.9561539 C248.616918,24.9561539 256.324039,32.6632739 256.324039,42.170869 L256.324039,75.0001006 L271.87817,75.0001006 L271.87817,41.7381109 Z" />
    <path d="M322.291773,59.2023161 L312.208509,59.2023161 C302.700914,59.2023161 294.993794,51.495196 294.993794,41.987601 L294.993794,39.9486058 L300.909497,39.9486058 C309.321107,39.9486058 316.140569,33.1291431 316.140569,24.7175331 L294.993794,24.7175331 L294.993794,16.213333 C294.529837,7.60547221 287.742579,0.684361665 279.19611,0 L279.19611,24.7175331 L279.188059,24.7175331 L279.188059,39.9486058 L279.19611,39.9486058 L279.19611,41.987601 C279.19611,60.2198009 293.976309,75 312.208509,75 L320.382605,75 L322.291773,75 L322.291773,59.2023161 Z" />
    <path d="M348.459549,59.2023161 L348.459549,41.8728698 C348.459549,32.3662811 356.166669,24.6581546 365.674264,24.6581546 L373.84836,24.6581546 L373.84836,8.86047073 L365.674264,8.86047073 C347.442064,8.86047073 332.661865,23.6406699 332.661865,41.8728698 L332.661865,75 C341.38647,75 348.459549,67.9269209 348.459549,59.2023161" />
    <path d="M391.71815,41.9304366 C391.71815,32.423848 399.424264,24.7177344 408.931859,24.7177344 C418.437441,24.7177344 426.144561,32.423848 426.144561,41.9304366 C426.144561,51.4370253 418.437441,59.1431389 408.931859,59.1431389 C399.424264,59.1431389 391.71815,51.4370253 391.71815,41.9304366 M442.000617,41.9304366 C442.000617,23.6660315 427.195258,8.86067202 408.931859,8.86067202 C390.667454,8.86067202 375.861088,23.6660315 375.861088,41.9304366 C375.861088,60.1938354 390.667454,75.0002013 408.931859,75.0002013 C427.195258,75.0002013 442.000617,60.1938354 442.000617,41.9304366" />
  </g>
</svg>